<svg xmlns="http://www.w3.org/2000/svg" viewBox="0 0 187.74 176.02"><path d="M974.79,471.17l-18-16.82a5.9,5.9,0,0,0-9.76,3l-5.55,24-25.85,7.9-18-16.82a5.89,5.89,0,0,0-9.76,3l-5.55,24-9.89,3a5.55,5.55,0,0,0-3.67,6.93l34.38,112.45a5.52,5.52,0,0,0,6.91,3.67l112.38-34.36a5.54,5.54,0,0,0,3.7-6.9h0L991.66,471.82a5.56,5.56,0,0,0-6.93-3.69h0Z" transform="translate(-866.93 -451.26)" fill="#42b983"/><path d="M1022.35,591.18a5.54,5.54,0,0,0,3.7-6.9h0l-13.88-45.41c-16.94-10.26-42.64-12.65-68.71-4.68s-46,24.37-54.34,42.3L903,621.89a5.54,5.54,0,0,0,6.91,3.67Z" transform="translate(-866.93 -451.26)" fill="#fff"/><path d="M952.12,462.73l-3.73,16.11a2.05,2.05,0,0,0,1.55,2.46,1.93,1.93,0,0,0,1,0l15.84-4.84a2.06,2.06,0,0,0,1.37-2.57,2.08,2.08,0,0,0-.56-.89l-12.11-11.27a2.07,2.07,0,0,0-2.91.11A2,2,0,0,0,952.12,462.73Z" transform="translate(-866.93 -451.26)" fill="#fff"/><path d="M892.91,480.83l-3.74,16.11a2.06,2.06,0,0,0,1.55,2.46,2.11,2.11,0,0,0,1.06,0l15.84-4.85a2.05,2.05,0,0,0,1.3-2.6,2.13,2.13,0,0,0-.54-.85l-12.11-11.3a2.06,2.06,0,0,0-2.9.19A2.09,2.09,0,0,0,892.91,480.83Z" transform="translate(-866.93 -451.26)" fill="#fff"/><path d="M907.22,537.31a7.47,7.47,0,1,0,9.32,5A7.47,7.47,0,0,0,907.22,537.31Z" transform="translate(-866.93 -451.26)" fill="#304455"/><path d="M974.16,516.85a7.46,7.46,0,1,0,9.32,4.95A7.47,7.47,0,0,0,974.16,516.85Z" transform="translate(-866.93 -451.26)" fill="#304455"/><path d="M910,568.94a1.24,1.24,0,0,0-.15-.33.35.35,0,0,0,0-.08,1.63,1.63,0,0,0-.17-.2.46.46,0,0,0-.07-.07,1.31,1.31,0,0,0-.28-.2h0a1.61,1.61,0,0,0-.33-.12h0l-26.11-6A1.51,1.51,0,0,0,881,563a1.5,1.5,0,0,0,1.13,1.79l20.65,4.77L886,574.73a1.5,1.5,0,0,0,.88,2.87l16.85-5.15L889.21,588a1.5,1.5,0,0,0,1.54,2.46,1.44,1.44,0,0,0,.66-.41l18.28-19.61,0,0a1.37,1.37,0,0,0,.2-.29h0a1.75,1.75,0,0,0,.12-.32s0-.06,0-.09a1.24,1.24,0,0,0,0-.27v-.1a1.51,1.51,0,0,0-.06-.35Z" transform="translate(-866.93 -451.26)" fill="#304455"/><path d="M1018.49,548.44l-20.66-4.78,16.85-5.15a1.5,1.5,0,0,0-.88-2.87L997,540.79l14.46-15.5a1.5,1.5,0,0,0-2.2-2l-18.28,19.6h0a1.51,1.51,0,0,0-.35,1.46,1.49,1.49,0,0,0,1.11,1h0l26.12,6a1.43,1.43,0,0,0,.77,0,1.49,1.49,0,0,0-.1-2.89Z" transform="translate(-866.93 -451.26)" fill="#304455"/><rect x="899.97" y="596.1" width="32.58" height="26.91" rx="9.05" transform="translate(-1005.11 -156.73) rotate(-17)" fill="#fff"/><rect x="991.85" y="568" width="32.58" height="26.91" rx="9.05" transform="matrix(0.96, -0.29, 0.29, 0.96, -992.89, -131.09)" fill="#fff"/><path d="M1022.49,567.31a1.27,1.27,0,0,0-.18-.37L993.1,471.38a7.05,7.05,0,0,0-8.8-4.68l-9.12,2.79-17.4-16.23a7.39,7.39,0,0,0-10.44.34,7.4,7.4,0,0,0-1.81,3.4l-5.35,23.19-24.2,7.4-17.41-16.23a7.37,7.37,0,0,0-12.24,3.74L881,498.29l-9.07,2.77a7.07,7.07,0,0,0-4.66,8.8l29.22,95.56a1.2,1.2,0,0,0,.06.41l4,13.13a10,10,0,0,0,.4,1.08l.69,2.27a7.05,7.05,0,0,0,8.79,4.67l3.3-1,13.83-4.23,78.05-23.87,13.91-4.25,3.29-1h0a7.05,7.05,0,0,0,4.67-8.78l-.7-2.27a10.74,10.74,0,0,0-.27-1.12ZM1004.72,595a7.55,7.55,0,0,1-9.43-5l-4-13.13a1.5,1.5,0,1,0-2.87.88l4,13.13a10.46,10.46,0,0,0,5.26,6.28l-64,19.57a10.56,10.56,0,0,0,.85-8.16l-4-13.13a1.5,1.5,0,1,0-2.87.88l4,13.13a7.56,7.56,0,0,1-5,9.43l-13.84,4.23a7.55,7.55,0,0,1-9.09-4.14L870.11,509a4.05,4.05,0,0,1,2.67-5.05l9.9-3a1.48,1.48,0,0,0,1-1.09l5.55-24a4.5,4.5,0,0,1,1.07-2,4.4,4.4,0,0,1,6.2-.2l18,16.82a1.5,1.5,0,0,0,1.47.34l25.85-7.91a1.48,1.48,0,0,0,1-1.09l5.56-24a4.39,4.39,0,0,1,7.27-2.22l18,16.82a1.5,1.5,0,0,0,1.46.34l9.94-3a4.06,4.06,0,0,1,5.06,2.68l33.62,110a7.55,7.55,0,0,1-5.22,8.51Z" transform="translate(-866.93 -451.26)" fill="#304455"/><path d="M970.75,561.52a19.58,19.58,0,0,1-20.85-6.24,19.64,19.64,0,0,1-13.72,16.81,19.85,19.85,0,0,1-13.56-.72,1.5,1.5,0,0,1,1.19-2.76,16.6,16.6,0,0,0,22.47-20l0-.13a1.5,1.5,0,0,1,1-1.87h0a1.5,1.5,0,0,1,1.87,1l0,.14a16.6,16.6,0,0,0,29.84,4,1.5,1.5,0,0,1,2.53,1.62A19.5,19.5,0,0,1,970.75,561.52Z" transform="translate(-866.93 -451.26)" fill="#304455"/><path d="M1018.23,462.23a13.5,13.5,0,0,1,4.37-6.15,17.51,17.51,0,0,1,8.17-3.72,20.9,20.9,0,0,1,10.45.84,21.77,21.77,0,0,1,8.49,4.82,15.52,15.52,0,0,1,4.45,7.13A13.4,13.4,0,0,1,1054,473a11.56,11.56,0,0,1-2.93,4.91,17,17,0,0,1-4.18,3c-1.48.75-4.09,1.95-7.85,3.63a27.85,27.85,0,0,0-2.56,1.32,7.52,7.52,0,0,0-2.57,2.39c-.28.42-.73,1.17-1.37,2.25q-1.86,3.48-5.42,2.34a4.51,4.51,0,0,1-2.72-2.21,5,5,0,0,1-.12-4,13.76,13.76,0,0,1,2.59-4.88,13.57,13.57,0,0,1,3.69-3.06A57.63,57.63,0,0,1,1036,476q2.92-1.26,4.26-2a10.87,10.87,0,0,0,2.43-1.71,5.74,5.74,0,0,0,1.56-2.49,6.57,6.57,0,0,0-.58-5.48,8.09,8.09,0,0,0-4.83-3.7q-3.91-1.26-6.4.12a16.52,16.52,0,0,0-5,4.82q-2.51,3.63-5.88,2.55a4.75,4.75,0,0,1-2.91-2.49A4.48,4.48,0,0,1,1018.23,462.23Zm4.87,44.56a5.83,5.83,0,0,1-3.34-2.62,5.17,5.17,0,0,1-.36-4.45,5.34,5.34,0,0,1,2.77-3.27,5.58,5.58,0,0,1,4.34-.29,5.48,5.48,0,0,1,3.6,7,5.23,5.23,0,0,1-2.86,3.4A5.68,5.68,0,0,1,1023.1,506.79Z" transform="translate(-866.93 -451.26)" fill="#304455"/><path d="M905.93,519.52c-1.58,5-8.22,10.56-15.44,11.07" transform="translate(-866.93 -451.26)" fill="none" stroke="#304455" stroke-linecap="round" stroke-miterlimit="10" stroke-width="3"/><path d="M960.74,501.7c4.4,2.84,13.06,2.91,19-1.3" transform="translate(-866.93 -451.26)" fill="none" stroke="#304455" stroke-linecap="round" stroke-miterlimit="10" stroke-width="3"/></svg>